<svg width="98" height="96" viewBox="0 0 98 96" fill="none" xmlns="http://www.w3.org/2000/svg">
<path id="e" d="M54.001 77.3984C62.0834 77.4003 69.9934 75.0597 76.7746 70.6597C78.6783 69.5294 80.452 69.0785 82.085 69.2838C83.7129 69.4885 85.2718 70.3541 86.7343 71.9932L88.3464 73.9582L88.3538 73.9672L88.3616 73.9759C89.9171 75.7012 90.6134 77.5955 90.4283 79.4284C90.2432 81.2607 89.1679 83.1226 86.9988 84.7638L86.9935 84.7679C76.6705 92.7951 64.3636 95.4767 52.9222 95.4767C36.8402 95.4767 23.9236 90.2014 15.031 81.7248C6.13806 73.2479 1.24072 61.5431 1.24072 48.6251C1.24072 22.84 20.9995 1.04761 50.4107 1.04761C62.5441 1.04761 73.8497 4.70776 82.3391 11.9538C90.8218 19.1942 96.5292 30.0453 97.4237 44.5053L97.4242 44.512C97.5918 46.7362 96.9527 48.3752 95.7619 49.4663C94.558 50.5693 92.7192 51.1777 90.3699 51.1777H23.2318H22.7444L22.7319 51.6649C22.3692 65.8977 34.931 77.3984 54.001 77.3984ZM54.001 77.3984L54.0011 76.8984M54.001 77.3984L54.0011 76.8984M54.0011 76.8984C35.119 76.8984 22.8783 65.5444 23.2318 51.6777L87.1144 71.6681C84.0635 68.2433 80.4546 67.8896 76.5108 70.2349C69.8088 74.5858 61.9902 76.9003 54.0011 76.8984ZM75.5434 37.6037H76.1833L76.0285 36.9827C74.2021 29.6541 70.3456 25.0367 65.6837 22.2628C61.0371 19.4981 55.6279 18.5862 50.7084 18.5862C40.5065 18.5862 28.1839 22.7976 23.7775 36.9551L23.5756 37.6037H24.2549H75.5434Z" fill="#00A898" stroke="#00A898"/>
</svg>
