<svg width="1440" height="1024" viewBox="0 0 1440 1024" fill="none" xmlns="http://www.w3.org/2000/svg">
<rect width="1440" height="1024" fill="#E5E5E5"/>
<g id="Lamp Preloader">
<rect width="1440" height="1024" fill="white"/>
<path id="Sky" d="M1123.31 573.613C1123.28 573.654 1123.25 573.703 1123.21 573.744C1123.05 573.917 1122.89 574.09 1122.72 574.254C1120.8 576.137 1118.11 577.042 1115.42 576.959L1103.56 576.622L980.141 573.111L970.001 572.824L969.697 572.815L962.065 572.593H962.057L961.382 572.577C961.374 572.577 961.374 572.577 961.366 572.577L956.431 572.437L956.127 572.429L880.993 570.291L875.853 570.143L875.549 570.135L867.234 569.896L866.93 569.888L822.85 568.638L812.866 568.351L812.562 568.342L807.537 568.194L807.232 568.186L787.873 567.635L781.829 567.463L780.521 567.43L772.815 567.208L769.509 567.109L755.471 566.714L753.53 566.657L747.683 566.492L739.886 566.27L737.263 566.196L731.292 566.024H731.169L730.676 566.007L724.96 565.843L701.629 565.177H701.62L695.452 565.004L668.889 564.248L587.982 561.946L587.661 561.937L445.863 557.908L445.674 555.787L445.37 552.219L444.375 540.864H438.7L439.753 552.868L439.778 553.181L440.024 555.968L441.25 570.044H370.82C374.726 568.186 378.978 566.032 383.394 563.598C402.244 553.197 423.938 537.608 433.634 517.463C452.558 478.145 381.272 504.094 382.152 479.682C383.032 455.27 413.075 468.023 427.318 460.985C440.008 454.711 415.205 456.471 408.716 421.6C405.821 406.036 414.571 390.578 429.424 385.069C439.704 381.262 454.745 378.845 476.761 380.045C531.302 383.005 555.958 382.158 559.477 362.844C562.997 343.53 537.297 320.41 522.239 313.511C508.489 307.213 482.797 268.083 522.239 244.987C561.681 221.891 624.397 312.475 673.675 284.569C707.887 265.197 745.586 264.893 765.43 266.513C765.43 266.513 765.43 266.513 765.438 266.513C769.139 267.475 773.744 268.108 779.444 268.313C834.141 270.303 839.092 246.22 872.152 246.689C872.152 246.689 872.292 246.697 872.547 246.73C875.557 247.075 894.883 249.789 896.594 263.273C898.453 277.892 881.264 288.803 894.735 303.891C908.198 318.979 922.573 322.268 957.418 331.049C982.263 337.314 1006.11 347.354 1005.71 362.154C1005.28 377.932 976.095 385.143 971.35 388.843C959.581 398.019 964.549 425.161 995.224 421.395H995.232C999.426 421.181 1004.37 420.458 1010.11 419.117C1049.11 409.982 1069.61 424.273 1076.89 431.212C1077.91 432.306 1078.92 433.416 1079.93 434.526C1079.97 434.575 1080 434.608 1080.01 434.624C1080.02 434.633 1080.02 434.641 1080.02 434.641C1080.02 434.641 1111.16 471.213 1075.73 474.683C1040.3 478.153 983.332 499.687 1031.96 514.232C1071.47 526.047 1083.51 531.244 1086.63 532.781C1086.69 532.806 1086.75 532.839 1086.8 532.864C1087.01 532.979 1087.23 533.094 1087.45 533.209C1087.49 533.234 1087.53 533.258 1087.57 533.275C1087.59 533.283 1087.6 533.291 1087.6 533.291C1094.66 537.057 1100.84 541.234 1106.21 545.476C1106.73 545.888 1107.24 546.29 1107.74 546.693C1111.74 549.966 1115.26 553.255 1118.33 556.404C1118.34 556.42 1118.36 556.445 1118.38 556.461C1125.98 564.848 1126.19 570.192 1123.31 573.613Z" fill="#091E51"/>
<path id="moon" d="M701.25 415.327C701.25 473.532 654.061 520.711 595.852 520.711C537.634 520.711 490.445 473.532 490.445 415.327C490.445 411.183 490.684 407.105 491.153 403.084C496.399 442.723 530.332 473.31 571.418 473.31C616.14 473.31 652.4 437.066 652.4 392.354C652.4 349.582 619.216 314.555 577.192 311.595C583.244 310.518 589.486 309.951 595.852 309.951C654.061 309.951 701.25 357.13 701.25 415.327Z" fill="#FFE000"/>
<g id="Mountains">
<path id="mountain3" d="M576.649 487.428C576.649 487.428 630.277 500.978 652.482 465.622C674.687 430.267 709.26 414.875 737.617 430.382C765.973 445.889 802.783 443.784 833.31 457.17C863.838 470.556 915.147 541.226 982.016 563.031C1048.88 584.844 589.215 570.045 589.215 570.045L576.649 487.428Z" fill="#2E5A99"/>
<path id="mountain2" d="M601.962 550.665C601.962 550.665 559.551 541.267 629.455 532.222C699.359 523.178 687.845 544.556 699.359 523.178C710.872 501.8 670.344 469.141 738.307 483.004C806.27 496.867 776.664 526.467 808.737 533.045C840.811 539.622 886.018 555.245 886.018 555.245L601.962 550.665Z" fill="#264884"/>
<path id="mountain1" d="M412.77 556.864C412.77 556.864 495.404 470.556 563.663 484.533C631.922 498.511 617.941 513.311 645.08 513.311C672.219 513.311 687.845 547.844 687.845 547.844L412.77 556.864Z" fill="#1F3972"/>
</g>
<g id="Road">
<path id="Road_2" d="M1136.87 792.045L738.833 790.4L718.027 672H474.129L698.536 547.844L922.228 672L1136.87 792.045Z" fill="#262630"/>
<path id="Stripe1" d="M677.977 693.378H721.564L710.897 625.174H686.694L677.977 693.378Z" fill="#FFE000"/>
<path id="Stripe2" d="M687.845 608.302H710.872L705.239 586.925H692.451L687.845 608.302Z" fill="#FFE000"/>
<path id="Stripe3" d="M692.779 579.048H705.115L702.097 570.044H695.246L692.779 579.048Z" fill="#FFE000"/>
<path id="Stripe4" d="M695.247 565.892H701.826L700.214 560.178H696.562L695.247 565.892Z" fill="#FFE000"/>
<path id="Stripe5" d="M696.892 558.492H700.181L699.375 555.244H697.55L696.892 558.492Z" fill="#FFE000"/>
<path id="Stripe6" d="M697.714 554.381H699.359L698.956 551.133H698.043L697.714 554.381Z" fill="#FFE000"/>
<path id="Stripe7" d="M698.997 550.665H698.067L698.536 547.844L698.997 550.665Z" fill="#FFE000"/>
</g>
<g id="Grass">
<path id="Grassright" d="M1208.2 785.623C1199.41 788.698 1189.84 790.4 1179.69 790.4L1136.87 792.045L1104.58 774.054L921.2 671.893L730.98 565.917L698.536 547.844C698.536 547.844 888.51 553.6 1022 563.031C1058.96 565.637 1086.02 568.285 1104.36 570.686C1112.37 571.73 1118.72 572.725 1123.51 573.654C1122.28 575.06 1120.52 576.137 1118.56 576.951C1112.38 579.508 1104.13 579.549 1103.63 579.549C1103.62 579.549 1103.61 579.549 1103.61 579.549C1099.59 579.442 1095.22 579.278 1090.5 579.048C1021.72 575.742 1078.8 585.502 1143.2 603.904C1152.39 606.535 1161.73 609.33 1170.88 612.299C1191.07 618.843 1210.3 626.186 1224.87 634.178C1236.11 640.344 1244.72 648.797 1251.27 658.598C1283.23 706.443 1258.05 768.175 1208.2 785.623Z" fill="#00933F"/>
<path id="Grassleft" d="M698.536 547.844L690.847 552.095H690.839L672.327 562.348L668.889 564.248L655.081 571.894H655.073L474.129 672H140.779C140.779 672 93.2447 672.863 129.85 651.058C166.454 629.253 223.191 667.067 224.014 634.178C224.836 601.289 334.437 677.049 338.327 598C338.697 590.51 339.125 583.167 350.087 578.719V578.711H350.095C350.457 578.596 359.084 575.636 370.82 570.044C374.726 568.186 378.978 566.032 383.394 563.598C392.531 560.926 402.507 558.706 412.77 556.864C412.77 556.864 412.77 556.864 412.778 556.856C421.677 555.269 430.781 553.954 439.753 552.868C441.636 552.638 443.503 552.424 445.37 552.219C484.845 547.844 520.117 547.844 520.117 547.844H698.536V547.844Z" fill="#00933F"/>
</g>
<g id="Lamps">
<path id="Lamp1" d="M1208.2 688.445V785.623C1199.41 788.698 1189.84 790.4 1179.69 790.4L1136.87 792.045H1104.58V688.445H1143.2V407.195C1143.2 381.78 1132.66 358.824 1115.73 342.453C1100.67 327.9 1080.54 318.543 1058.25 317.302C1056.56 317.203 1054.86 317.154 1053.14 317.154H911.413C926.545 326.741 936.603 343.613 936.603 362.844C936.603 392.699 912.4 416.897 882.539 416.897C852.678 416.897 828.475 392.699 828.475 362.844C828.475 358.125 829.083 353.553 830.218 349.196C831.353 344.838 833.014 340.694 835.144 336.829C835.144 336.821 835.152 336.821 835.152 336.813C838.204 331.279 842.192 326.338 846.913 322.202C866.601 301.646 894.307 288.844 925.016 288.844H1062.75C1090.3 288.844 1115.43 299.147 1134.53 316.101C1156.82 335.9 1170.88 364.785 1170.88 396.95V688.445H1208.2Z" fill="#262630"/>
<path id="Lamp2" d="M970.001 622.864V479.97C970.001 450.707 946.267 426.978 916.998 426.978H849.479C834.429 426.978 820.843 433.251 811.196 443.332C808.885 445.363 806.928 447.78 805.431 450.493C805.431 450.493 805.431 450.502 805.423 450.502C803.342 454.284 802.15 458.633 802.15 463.254C802.15 477.89 814.017 489.754 828.656 489.754C843.294 489.754 855.153 477.89 855.153 463.254C855.153 453.823 850.227 445.552 842.809 440.857H912.285C936.669 440.857 956.431 460.615 956.431 484.994V622.856H937.5V673.644H988.291V622.864H970.001Z" fill="#262630"/>
<path id="Lamp3" d="M875.853 593.708V502.959C875.853 484.377 860.778 469.306 842.192 469.306H799.313C789.756 469.306 781.129 473.294 775.003 479.691C773.53 480.981 772.289 482.519 771.343 484.237C771.343 484.237 771.343 484.237 771.343 484.246C770.019 486.647 769.262 489.409 769.262 492.345C769.262 501.636 776.795 509.167 786.088 509.167C795.381 509.167 802.915 501.636 802.915 492.345C802.915 486.359 799.781 481.105 795.077 478.12H839.199C854.684 478.12 867.234 490.667 867.234 506.15V593.7H855.211V625.956H887.465V593.708H875.853Z" fill="#262630"/>
<path id="Lamp4" d="M812.866 578.086V522.068C812.866 510.598 803.564 501.29 792.084 501.29H765.611C759.706 501.29 754.385 503.749 750.602 507.704C749.698 508.501 748.924 509.447 748.341 510.507C747.526 511.987 747.058 513.698 747.058 515.506C747.058 521.246 751.712 525.891 757.444 525.891C763.177 525.891 767.831 521.237 767.831 515.506C767.831 511.806 765.899 508.567 762.987 506.725H790.225C799.781 506.725 807.537 514.47 807.537 524.033V578.086H800.119V598H820.037V578.086H812.866Z" fill="#262630"/>
<path id="Lamp5" d="M772.815 568.375V533.604C772.815 526.483 767.042 520.711 759.92 520.711H743.489C739.829 520.711 736.523 522.241 734.171 524.691C733.612 525.184 733.135 525.776 732.764 526.434C732.255 527.355 731.967 528.415 731.967 529.534C731.967 533.094 734.853 535.98 738.414 535.98C741.975 535.98 744.862 533.094 744.862 529.534C744.862 527.24 743.661 525.225 741.86 524.082H758.769C764.698 524.082 769.509 528.892 769.509 534.82V568.367H764.904V580.733H777.264V568.375H772.815Z" fill="#262630"/>
<path id="Lamp6" d="M744.854 558.961V537.032C744.854 532.543 741.21 528.9 736.72 528.9H726.358C724.047 528.9 721.966 529.862 720.486 531.408C720.132 531.721 719.828 532.091 719.598 532.51C719.277 533.094 719.096 533.76 719.096 534.467C719.096 536.711 720.914 538.537 723.167 538.537C725.412 538.537 727.238 536.72 727.238 534.467C727.238 533.02 726.481 531.753 725.346 531.03H736.013C739.755 531.03 742.789 534.064 742.789 537.805V558.961H739.886V566.755H747.683V558.961H744.854Z" fill="#262630"/>
<path id="Lamp7" d="M724.524 552.013V538.29C724.524 535.478 722.246 533.201 719.434 533.201H712.945C711.497 533.201 710.198 533.801 709.269 534.771C709.047 534.968 708.858 535.199 708.718 535.462C708.52 535.824 708.405 536.243 708.405 536.687C708.405 538.093 709.548 539.236 710.955 539.236C712.361 539.236 713.504 538.093 713.504 536.687C713.504 535.782 713.027 534.985 712.32 534.533H718.989C721.333 534.533 723.233 536.432 723.233 538.775V552.013H721.416V556.889H726.292V552.013H724.524Z" fill="#262630"/>
</g>
<g id="Lights">
<path id="Light1" d="M878.657 425.103C904.097 425.103 924.72 404.485 924.72 379.05C924.72 353.616 904.097 332.998 878.657 332.998C853.218 332.998 832.595 353.616 832.595 379.05C832.595 404.485 853.218 425.103 878.657 425.103Z" fill="#FFEE8D"/>
<path id="Light2" d="M827.973 493.405C841.313 493.405 852.127 482.593 852.127 469.256C852.127 455.919 841.313 445.108 827.973 445.108C814.633 445.108 803.819 455.919 803.819 469.256C803.819 482.593 814.633 493.405 827.973 493.405Z" fill="#FFEE8D"/>
<path id="Light3" d="M786.236 514.232C795.307 514.232 802.66 506.881 802.66 497.812C802.66 488.744 795.307 481.393 786.236 481.393C777.166 481.393 769.813 488.744 769.813 497.812C769.813 506.881 777.166 514.232 786.236 514.232Z" fill="#FFEE8D"/>
<path id="Light4" d="M758.193 528.062C763.589 528.062 767.963 523.689 767.963 518.294C767.963 512.899 763.589 508.526 758.193 508.526C752.797 508.526 748.423 512.899 748.423 518.294C748.423 523.689 752.797 528.062 758.193 528.062Z" fill="#FFEE8D"/>
<path id="Light5" d="M739.245 537.46C742.715 537.46 745.528 534.647 745.528 531.178C745.528 527.709 742.715 524.896 739.245 524.896C735.775 524.896 732.962 527.709 732.962 531.178C732.962 534.647 735.775 537.46 739.245 537.46Z" fill="#FFEE8D"/>
<path id="Light6" d="M723.768 538.866C725.725 538.866 727.312 537.279 727.312 535.322C727.312 533.365 725.725 531.778 723.768 531.778C721.81 531.778 720.223 533.365 720.223 535.322C720.223 537.279 721.81 538.866 723.768 538.866Z" fill="#FFEE8D"/>
<path id="Light7" d="M710.881 539.441C712.025 539.441 712.953 538.514 712.953 537.369C712.953 536.225 712.025 535.297 710.881 535.297C709.736 535.297 708.808 536.225 708.808 537.369C708.808 538.514 709.736 539.441 710.881 539.441Z" fill="#FFEE8D"/>
<path id="glow1" d="M1018 734.634C1018 760.79 955.096 781.991 877.504 781.991C799.912 781.991 737 760.782 737 734.634L739.341 725.991L830.168 390.365C830.168 377.805 835.154 365.76 844.03 356.878C852.906 347.997 864.944 343.008 877.496 343.008C890.048 343.008 902.086 347.997 910.962 356.878C919.837 365.76 924.824 377.805 924.824 390.365L1015.66 725.991L1018 734.634Z" fill="#FFEE8D" fill-opacity="0.35"/>
<path id="glow2" d="M910 677.381C910 692.633 873.288 704.996 828.002 704.996C782.717 704.996 746 692.628 746 677.381L747.366 672.341L800.376 476.622C800.376 469.298 803.286 462.274 808.466 457.095C813.646 451.916 820.672 449.006 827.998 449.006C835.323 449.006 842.349 451.916 847.529 457.095C852.709 462.274 855.619 469.298 855.619 476.622L908.634 672.341L910 677.381Z" fill="#FFEE8D" fill-opacity="0.35"/>
<path id="glow3" d="M837 625.63C837 635.222 813.943 642.998 785.502 642.998C757.06 642.998 734 635.219 734 625.63L734.858 622.46L768.151 499.372C768.151 494.765 769.978 490.348 773.232 487.091C776.485 483.834 780.898 482.004 785.498 482.004C790.099 482.004 794.512 483.834 797.765 487.091C801.019 490.348 802.846 494.765 802.846 499.372L836.142 622.46L837 625.63Z" fill="#FFEE8D" fill-opacity="0.35"/>
<path id="glow4" d="M790 598.32C790 604.219 775.673 609 758.001 609C740.329 609 726 604.217 726 598.32L726.533 596.371L747.22 520.68C747.22 517.848 748.355 515.131 750.377 513.128C752.398 511.125 755.14 510 757.999 510C760.858 510 763.6 511.125 765.621 513.128C767.643 515.131 768.778 517.848 768.778 520.68L789.467 596.371L790 598.32Z" fill="#FFEE8D" fill-opacity="0.35"/>
<path id="glow5" d="M758 579.635C758 583.151 749.493 586 739.001 586C728.508 586 720 583.149 720 579.635L720.317 578.474L732.599 533.365C732.599 531.677 733.274 530.058 734.474 528.864C735.674 527.671 737.302 527 738.999 527C740.697 527 742.325 527.671 743.525 528.864C744.725 530.058 745.4 531.677 745.4 533.365L757.683 578.474L758 579.635Z" fill="#FFEE8D" fill-opacity="0.35"/>
<path id="glow6" d="M735 564.224C735 566.31 729.851 568 723.5 568C717.149 568 712 566.309 712 564.224L712.192 563.535L719.626 536.776C719.626 535.774 720.034 534.814 720.76 534.106C721.487 533.398 722.472 533 723.5 533C724.527 533 725.512 533.398 726.239 534.106C726.965 534.814 727.373 535.774 727.373 536.776L734.808 563.535L735 564.224Z" fill="#FFEE8D" fill-opacity="0.35"/>
<path id="glow7" d="M718 555.627C718 556.938 714.866 558 711 558C707.134 558 704 556.937 704 555.627L704.117 555.194L708.642 538.373C708.642 537.744 708.89 537.14 709.332 536.695C709.775 536.25 710.374 536 711 536C711.625 536 712.225 536.25 712.667 536.695C713.109 537.14 713.358 537.744 713.358 538.373L717.883 555.194L718 555.627Z" fill="#FFEE8D" fill-opacity="0.35"/>
</g>
<g id="Stars">
<circle id="starleft3" cx="534" cy="262" r="6" fill="#FFEE8D"/>
<circle id="starleft2" cx="458" cy="442" r="2" fill="#FFEE8D"/>
<circle id="starleft1" cx="468" cy="493" r="6" fill="#FFEE8D"/>
<circle id="starmid5" cx="775" cy="433" r="6" fill="#FFEE8D"/>
<circle id="starmid4" cx="748" cy="385" r="2" fill="#FFEE8D"/>
<circle id="starmid3" cx="791" cy="355" r="2" fill="#FFEE8D"/>
<circle id="starmid2" cx="754" cy="323" r="6" fill="#FFEE8D"/>
<circle id="starmid1" cx="688" cy="304" r="6" fill="#FFEE8D"/>
<circle id="starright6" cx="1000" cy="546" r="6" fill="#FFEE8D"/>
<circle id="starright5" cx="997" cy="494" r="2" fill="#FFEE8D"/>
<circle id="starright4" cx="1025" cy="439" r="2" fill="#FFEE8D"/>
<circle id="starright3" cx="988" cy="357" r="6" fill="#FFEE8D"/>
<circle id="starright2" cx="862" cy="268" r="6" fill="#FFEE8D"/>
<circle id="starright1" cx="842" cy="279" r="2" fill="#FFEE8D"/>
</g>
</g>
</svg>
