<svg width="1440" height="1024" viewBox="0 0 1440 1024" fill="none" xmlns="http://www.w3.org/2000/svg">
<g id="Lamp Preloader">
<rect width="1440" height="1024" fill="white"/>
<path id="Sky" d="M1123 574C1122.97 574.041 1123.04 573.959 1123 574C1122.84 574.173 1123.17 573.835 1123 574C1121.08 575.884 1117.69 577.082 1115 577H1104L980 573H970V573H962V573H961C960.992 573 961.008 573 961 573L956 572V572L881 570H876V570H867V570L823 569L813 568V568H808H807H788L782 567H781H773H770H756H754H748L740 566H737H731V566V566H725L702 565V565H696L669 564L588 562V562L446 558V556V552L445 541H439L440 553V553V556L441 570H371C374.905 568.141 379.585 566.435 384 564C402.844 553.592 424.307 537.157 434 517C452.918 477.657 381.12 504.427 382 480C382.88 455.573 412.76 468.043 427 461C439.686 454.723 415.487 456.892 409 422C406.106 406.426 415.152 390.512 430 385C440.277 381.191 454.99 378.799 477 380C531.527 382.962 556.481 382.326 560 363C563.519 343.674 537.054 319.903 522 313C508.253 306.698 482.568 268.111 522 245C561.432 221.889 624.735 311.924 674 284C708.203 264.616 746.161 264.379 766 266C766 266 765.992 266 766 266C769.7 266.963 774.302 267.794 780 268C834.683 269.991 838.949 246.531 872 247C872 247 872.745 246.967 873 247C876.009 247.346 895.29 249.507 897 263C898.858 277.628 881.533 288.903 895 304C908.459 319.097 922.164 322.213 957 331C981.838 337.269 1006.4 347.191 1006 362C1005.57 377.788 975.744 385.298 971 389C959.235 398.182 964.333 424.768 995 421V421C999.193 420.786 1004.26 420.341 1010 419C1048.99 409.859 1069.72 424.056 1077 431C1078.02 432.094 1078.99 432.889 1080 434C1080.04 434.049 1079.98 434.984 1080 435C1080.01 435.008 1080 435 1080 435C1080 435 1111.42 471.528 1076 475C1040.58 478.472 983.385 499.446 1032 514C1071.5 525.823 1083.88 531.462 1087 533C1087.07 533.025 1086.95 532.975 1087 533C1087.21 533.115 1086.79 532.885 1087 533C1087.04 533.025 1087.96 532.984 1088 533C1088.02 533.008 1088 533 1088 533C1095.06 536.768 1100.64 540.755 1106 545C1106.53 545.411 1107.51 546.597 1108 547C1112 550.275 1114.93 552.849 1118 556C1118.02 556.016 1117.98 555.984 1118 556C1125.61 564.392 1125.88 570.577 1123 574Z" fill="#091E51"/>
<path id="sky-pre-morph" d="M871 550C871 550 664.521 457.75 457 550H871Z" fill="#091E51"/>
<path id="moon" d="M701 415C701 473.271 654.263 521 596 521C537.729 521 490 473.271 490 415C490 410.851 490.531 407.025 491 403C496.252 442.684 529.875 474 571 474C615.763 474 652 436.763 652 392C652 349.179 619.063 314.963 577 312C583.058 310.922 589.629 310 596 310C654.263 310 701 356.737 701 415Z" fill="#FFE000"/>
<g id="Mountains">
<path id="mountain3" d="M577 487C577 487 630.796 500.452 653 465C675.204 429.548 709.645 414.451 738 430C766.355 445.549 803.474 443.578 834 457C864.526 470.422 915.133 541.135 982 563C1048.86 584.873 590 570 590 570L577 487Z" fill="#2E5A99"/>
<path id="mountain2" d="M602 550C602 550 559.05 541.097 629 532C698.95 522.903 687.479 544.502 699 523C710.521 501.498 669.992 468.057 738 482C806.008 495.943 776.905 526.384 809 533C841.095 539.616 886 555 886 555L602 550Z" fill="#264884"/>
<path id="mountain1" d="M413 557C413 557 495.76 470.996 564 485C632.24 499.004 617.868 513 645 513C672.132 513 688 548 688 548L413 557Z" fill="#1F3972"/>
</g>
<g id="Road">
<path id="Road_2" d="M1137 792L739 790L718 672H474L698 548L922 672L1137 792Z" fill="#262630"/>
<path id="Stripe1" d="M678 693H722L711 625H687L678 693Z" fill="#FFE000"/>
<path id="Stripe2" d="M688 608H711L705 587H693L688 608Z" fill="#FFE000"/>
<path id="Stripe3" d="M693 579H705L702 570H695L693 579Z" fill="#FFE000"/>
<path id="Stripe4" d="M695 566H702L700 560H696L695 566Z" fill="#FFE000"/>
<path id="Stripe5" d="M697 558H700L699 555H698L697 558Z" fill="#FFE000"/>
<path id="Stripe6" d="M698 554H700V551H698V554Z" fill="#FFE000"/>
<path id="Stripe7" d="M699 551H698L699 548V551Z" fill="#FFE000"/>
</g>
<g id="Grass">
<path id="Grassright" d="M1208 786C1199.21 789.073 1189.16 790 1179 790L1136 792L1104 774L921 672L730 566L698 548C698 548 887.498 553.577 1021 563C1057.96 565.604 1085.66 568.601 1104 571C1112.01 572.043 1118.21 573.072 1123 574C1121.77 575.405 1119.97 576.187 1118 577C1111.82 579.555 1103.5 580 1103 580C1102.98 580 1103 580 1103 580C1098.99 579.893 1094.72 579.23 1090 579C1021.22 575.697 1078.59 585.614 1143 604C1152.2 606.629 1160.85 609.034 1170 612C1190.19 618.54 1209.43 626.015 1224 634C1235.24 640.162 1244.45 649.207 1251 659C1282.97 706.806 1257.86 768.567 1208 786Z" fill="#00933F"/>
<path id="Grassleft" d="M698 548L690 552V552L672 562L668 564L655 572V572L474 672H141C141 672 93.4289 672.777 130 651C166.571 629.223 223.178 666.846 224 634C224.822 601.154 334.114 676.946 338 598C338.37 590.519 339.048 583.442 350 579V579V579C350.362 578.885 359.275 575.584 371 570C374.903 568.144 378.588 566.431 383 564C392.128 561.331 401.746 558.839 412 557C412 557 412.992 557.008 413 557C421.89 555.415 430.036 554.084 439 553C440.882 552.77 443.135 552.205 445 552C484.439 547.631 520 548 520 548H698V548Z" fill="#00933F"/>
<path id="grass-morph-right" d="M698.046 548.011C698.046 548.011 1070.59 489.734 1136.47 791.579L698.046 548.011" fill="#00933F"/>
<path id="grass-morph-left" d="M697.946 548.062C697.946 548.062 507.15 518.197 473.505 672.279L697.946 548.062" fill="#00933F"/>
</g>
<g id="Lamps">
<path id="Lamp1" d="M1208 688V786C1199.2 789.074 1189.16 790 1179 790L1137 792H1104V688H1143V407C1143 381.595 1131.95 359.364 1115 343C1099.93 328.452 1080.3 318.241 1058 317C1056.3 316.901 1054.72 317 1053 317H911C926.143 326.583 936 343.776 936 363C936 392.843 911.883 417 882 417C852.117 417 828 392.843 828 363C828 358.282 828.864 353.356 830 349C831.136 344.644 832.868 340.863 835 337C835 336.992 835 337.008 835 337C838.053 331.469 841.276 326.134 846 322C865.702 301.453 894.269 289 925 289H1062C1089.57 289 1114.89 299.053 1134 316C1156.31 335.791 1171 364.847 1171 397V688H1208Z" fill="#262630"/>
<path id="Lamp2" d="M970 623V480C970 450.698 946.247 427 917 427H849C833.962 427 820.639 432.906 811 443C808.691 445.034 806.496 448.283 805 451C805 451 805.008 451 805 451C802.921 454.787 802 458.373 802 463C802 477.655 813.372 490 828 490C842.628 490 855 477.655 855 463C855 453.556 850.412 445.701 843 441H912C936.366 441 956 460.588 956 485V623H937V674H988V623H970Z" fill="#262630"/>
<path id="Lamp3" d="M875 594V503C875 484.376 860.554 469 842 469H799C789.46 469 781.116 472.589 775 479C773.53 480.294 771.944 482.278 771 484C771 484 771 483.992 771 484C769.678 486.406 769 489.058 769 492C769 501.312 776.723 509 786 509C795.277 509 803 501.312 803 492C803 486.001 799.696 480.991 795 478H839C854.459 478 867 490.483 867 506V594H855V626H887V594H875Z" fill="#262630"/>
<path id="Lamp4" d="M813 578V522C813 510.496 803.484 501 792 501H766C760.094 501 754.784 503.033 751 507C750.095 507.8 748.584 508.936 748 510C747.186 511.484 747 513.186 747 515C747 520.756 751.266 526 757 526C762.734 526 768 520.748 768 515C768 511.289 765.912 507.847 763 506H790C799.559 506 807 514.409 807 524V578H800V598H820V578H813Z" fill="#262630"/>
<path id="Lamp5" d="M773 569V534C773 526.882 767.075 521 760 521H743C739.364 521 736.337 522.551 734 525C733.444 525.493 733.368 526.342 733 527C732.493 527.921 732 528.882 732 530C732 533.559 734.462 536 738 536C741.538 536 745 533.559 745 530C745 527.707 743.789 525.142 742 524H759C764.891 524 769 529.074 769 535V569H765V581H777V569H773Z" fill="#262630"/>
<path id="Lamp6" d="M745 559V537C745 532.493 741.555 529 737 529H726C723.656 529 721.502 530.448 720 532C719.641 532.314 720.234 532.579 720 533C719.675 533.586 719 534.29 719 535C719 537.253 720.714 539 723 539C725.278 539 727 537.262 727 535C727 533.547 726.151 531.726 725 531H736C739.796 531 743 534.245 743 538V559H740V567H748V559H745Z" fill="#262630"/>
<path id="Lamp7" d="M724 552V538C724 535.151 721.83 533 719 533H713C711.543 533 709.935 534.017 709 535C708.777 535.2 708.141 534.733 708 535C707.801 535.367 708 536.55 708 537C708 538.425 709.585 539 711 539C712.415 539 713 538.425 713 537C713 536.084 712.712 534.458 712 534H719C721.359 534 723 536.626 723 539V552H721V557H726V552H724Z" fill="#262630"/>
</g>
<g id="Lights">
<path id="Light1" d="M879 425C904.405 425 925 404.405 925 379C925 353.595 904.405 333 879 333C853.595 333 833 353.595 833 379C833 404.405 853.595 425 879 425Z" fill="#FFEE8D"/>
<path id="Light2" d="M828 493C841.255 493 852 482.255 852 469C852 455.745 841.255 445 828 445C814.745 445 804 455.745 804 469C804 482.255 814.745 493 828 493Z" fill="#FFEE8D"/>
<path id="Light3" d="M787 514C796.113 514 803 507.113 803 498C803 488.887 796.113 481 787 481C777.887 481 770 488.887 770 498C770 507.113 777.887 514 787 514Z" fill="#FFEE8D"/>
<path id="Light4" d="M758 529C763.523 529 768 524.523 768 519C768 513.477 763.523 509 758 509C752.477 509 748 513.477 748 519C748 524.523 752.477 529 758 529Z" fill="#FFEE8D"/>
<path id="Light5" d="M740 538C743.59 538 746 534.59 746 531C746 527.41 743.59 525 740 525C736.41 525 733 527.41 733 531C733 534.59 736.41 538 740 538Z" fill="#FFEE8D"/>
<path id="Light6" d="M724 539C725.933 539 727 537.933 727 536C727 534.067 725.933 532 724 532C722.067 532 720 534.067 720 536C720 537.933 722.067 539 724 539Z" fill="#FFEE8D"/>
<path id="Light7" d="M711 539C712.105 539 713 538.105 713 537C713 535.895 712.105 535 711 535C709.895 535 709 535.895 709 537C709 538.105 709.895 539 711 539Z" fill="#FFEE8D"/>
<path id="glow1" d="M1018 735C1018 761.157 955.592 782 878 782C800.408 782 737 761.149 737 735L739 726L830 390C830 377.44 835.124 365.882 844 357C852.876 348.118 864.448 343 877 343C889.552 343 902.124 348.118 911 357C919.876 365.882 925 377.44 925 390L1016 726L1018 735Z" fill="#FFEE8D" fill-opacity="0.35"/>
<path id="glow2" d="M910 677C910 692.253 873.285 705 828 705C782.715 705 746 692.249 746 677L747 672L800 477C800 469.676 802.82 462.179 808 457C813.18 451.821 820.674 449 828 449C835.326 449 842.82 451.821 848 457C853.18 462.179 856 469.676 856 477L909 672L910 677Z" fill="#FFEE8D" fill-opacity="0.35"/>
<path id="glow3" d="M837 626C837 635.593 814.441 643 786 643C757.559 643 734 635.59 734 626L735 622L768 499C768 494.394 769.747 490.257 773 487C776.253 483.743 780.399 482 785 482C789.601 482 794.747 483.743 798 487C801.253 490.257 803 494.394 803 499L836 622L837 626Z" fill="#FFEE8D" fill-opacity="0.35"/>
<path id="glow4" d="M790 598C790 603.899 775.672 609 758 609C740.328 609 726 603.897 726 598L727 596L747 521C747 518.167 747.978 515.003 750 513C752.022 510.997 755.141 510 758 510C760.859 510 763.978 510.997 766 513C768.022 515.003 769 518.167 769 521L789 596L790 598Z" fill="#FFEE8D" fill-opacity="0.35"/>
<path id="glow5" d="M758 580C758 583.515 749.493 586 739 586C728.507 586 720 583.514 720 580V578L733 533C733 531.312 732.8 530.194 734 529C735.2 527.806 737.303 527 739 527C740.697 527 742.8 527.806 744 529C745.2 530.194 745 531.312 745 533L758 578V580Z" fill="#FFEE8D" fill-opacity="0.35"/>
<path id="glow6" d="M735 564C735 566.085 730.351 568 724 568C717.649 568 712 566.085 712 564V564L720 537C720 535.999 720.274 534.708 721 534C721.726 533.292 721.973 533 723 533C724.027 533 725.274 533.292 726 534C726.726 534.708 727 535.999 727 537L735 564V564Z" fill="#FFEE8D" fill-opacity="0.35"/>
<path id="glow7" d="M718 556C718 557.311 714.866 558 711 558C707.134 558 704 557.31 704 556V555L709 538C709 537.371 708.558 537.445 709 537C709.442 536.555 710.375 536 711 536C711.625 536 712.558 536.555 713 537C713.442 537.445 713 537.371 713 538L718 555V556Z" fill="#FFEE8D" fill-opacity="0.35"/>
</g>
<g id="Stars">
<circle id="starleft3" cx="534" cy="262" r="6" fill="#FFEE8D"/>
<circle id="starleft2" cx="458" cy="442" r="2" fill="#FFEE8D"/>
<circle id="starleft1" cx="468" cy="493" r="6" fill="#FFEE8D"/>
<circle id="starmid5" cx="775" cy="433" r="6" fill="#FFEE8D"/>
<circle id="starmid4" cx="748" cy="385" r="2" fill="#FFEE8D"/>
<circle id="starmid3" cx="791" cy="355" r="2" fill="#FFEE8D"/>
<circle id="starmid2" cx="754" cy="323" r="6" fill="#FFEE8D"/>
<circle id="starmid1" cx="688" cy="304" r="6" fill="#FFEE8D"/>
<circle id="starright6" cx="1000" cy="546" r="6" fill="#FFEE8D"/>
<circle id="starright5" cx="997" cy="494" r="2" fill="#FFEE8D"/>
<circle id="starright4" cx="1025" cy="439" r="2" fill="#FFEE8D"/>
<circle id="starright3" cx="988" cy="357" r="6" fill="#FFEE8D"/>
<circle id="starright2" cx="862" cy="268" r="6" fill="#FFEE8D"/>
<circle id="starright1" cx="842" cy="279" r="2" fill="#FFEE8D"/>
</g>
</g>
</svg>
