<svg width="1440" height="1024" viewBox="0 0 1440 1024" fill="none" xmlns="http://www.w3.org/2000/svg">
<g id="logo animation" clip-path="url(#clip0_1_2)">
<rect width="1440" height="1024" fill="white"/>
<rect id="bg" width="1440" height="1024" fill="#2E2E82"/>
<g id="bar-bottom">
<path id="bar-draw-underline" d="M515 613L1418 614.016" stroke="#FF0000" stroke-width="28" stroke-linecap="round"/>
<path id="bar-underline" fill-rule="evenodd" clip-rule="evenodd" d="M501.016 613C501.024 605.268 507.3 599.007 515.031 599.016L1418.03 600.031C1425.76 600.04 1432.02 606.315 1432.02 614.047C1432.01 621.779 1425.73 628.04 1418 628.031L515 627.016C507.268 627.007 501.007 620.732 501.016 613Z" fill="#00A898"/>
</g>
<g id="bars">
<path id="bar-draw-7" d="M515 17V1028" stroke="#FF0000" stroke-width="28" stroke-linecap="round"/>
<path id="bar-draw-6" d="M482 17V1028" stroke="#FF0000" stroke-width="28" stroke-linecap="round"/>
<path id="bar-draw-5" d="M449 17V1028" stroke="#FF0000" stroke-width="28" stroke-linecap="round"/>
<path id="bar-draw-4" d="M416 17V1028" stroke="#FF0000" stroke-width="28" stroke-linecap="round"/>
<path id="bar-draw-3" d="M383 17V1028" stroke="#FF0000" stroke-width="28" stroke-linecap="round"/>
<path id="bar-draw-2" d="M350 17V1028" stroke="#FF0000" stroke-width="28" stroke-linecap="round"/>
<path id="bar-draw-1" d="M317 17V1028" stroke="#FF0000" stroke-width="28" stroke-linecap="round"/>
<path id="bar-1" d="M316.952 626.994C313.252 626.994 309.703 625.523 307.087 622.905C304.47 620.287 303 616.736 303 613.034V411.082C303 407.38 304.47 403.829 307.087 401.211C309.703 398.593 313.252 397.123 316.952 397.123C320.653 397.123 324.201 398.593 326.818 401.211C329.435 403.829 330.904 407.38 330.904 411.082V613.034C330.904 616.736 329.435 620.287 326.818 622.905C324.201 625.523 320.653 626.994 316.952 626.994V626.994Z" fill="#00A898"/>
<path id="bar-2" d="M349.952 626.871C346.252 626.871 342.703 625.4 340.087 622.782C337.47 620.164 336 616.614 336 612.911V410.96C336 407.257 337.47 403.707 340.087 401.089C342.703 398.471 346.252 397 349.952 397C353.653 397 357.201 398.471 359.818 401.089C362.435 403.707 363.904 407.257 363.904 410.96V612.911C363.904 614.745 363.544 616.56 362.842 618.254C362.141 619.947 361.114 621.486 359.818 622.782C358.522 624.079 356.984 625.107 355.292 625.809C353.599 626.51 351.784 626.871 349.952 626.871V626.871Z" fill="#00A898"/>
<path id="bar-3" d="M382.952 626.871C379.252 626.871 375.703 625.4 373.087 622.782C370.47 620.165 369 616.614 369 612.911V410.96C369 407.257 370.47 403.707 373.087 401.089C375.703 398.471 379.252 397 382.952 397C386.653 397 390.201 398.471 392.818 401.089C395.434 403.707 396.904 407.257 396.904 410.96V612.911C396.904 616.614 395.434 620.165 392.818 622.782C390.201 625.4 386.653 626.871 382.952 626.871Z" fill="#00A898"/>
<path id="bar-4" d="M415.952 626.871C414.119 626.874 412.304 626.514 410.61 625.814C408.916 625.113 407.377 624.085 406.081 622.788C404.785 621.491 403.757 619.951 403.057 618.256C402.357 616.562 401.998 614.745 402 612.911V410.96C402 407.257 403.47 403.707 406.087 401.089C408.703 398.471 412.252 397 415.952 397C419.653 397 423.201 398.471 425.818 401.089C428.435 403.707 429.904 407.257 429.904 410.96V612.911C429.904 616.614 428.435 620.164 425.818 622.782C423.201 625.4 419.653 626.871 415.952 626.871Z" fill="#00A898"/>
<path id="bar-5" d="M448.952 626.871C445.252 626.871 441.703 625.4 439.087 622.782C436.47 620.164 435 616.614 435 612.911V410.96C435 407.257 436.47 403.707 439.087 401.089C441.703 398.471 445.252 397 448.952 397C452.653 397 456.201 398.471 458.818 401.089C461.435 403.707 462.904 407.257 462.904 410.96V612.911C462.904 616.614 461.435 620.164 458.818 622.782C456.201 625.4 452.653 626.871 448.952 626.871Z" fill="#00A898"/>
<path id="bar-6" d="M481.952 626.871C480.119 626.874 478.304 626.514 476.61 625.814C474.916 625.113 473.377 624.085 472.081 622.788C470.785 621.491 469.757 619.951 469.057 618.257C468.357 616.562 467.998 614.745 468 612.911V410.96C468 407.257 469.47 403.707 472.087 401.089C474.703 398.471 478.252 397 481.952 397C485.653 397 489.201 398.471 491.818 401.089C494.435 403.707 495.904 407.257 495.904 410.96V612.911C495.904 616.614 494.435 620.165 491.818 622.782C489.201 625.4 485.653 626.871 481.952 626.871Z" fill="#00A898"/>
<path id="bar-7" d="M515.242 626.994C511.541 626.994 507.992 625.523 505.376 622.905C502.759 620.287 501.289 616.736 501.289 613.034V411.082C501.289 407.38 502.759 403.829 505.376 401.211C507.992 398.593 511.541 397.123 515.242 397.123C518.942 397.123 522.491 398.593 525.107 401.211C527.724 403.829 529.194 407.38 529.194 411.082V613.034C529.194 616.736 527.724 620.287 525.107 622.905C522.491 625.523 518.942 626.994 515.242 626.994Z" fill="#00A898"/>
</g>
<g id="balls">
<path id="ball-1" d="M317 627C324.732 627 331 620.732 331 613C331 605.268 324.732 599 317 599C309.268 599 303 605.268 303 613C303 620.732 309.268 627 317 627Z" fill="#00A898"/>
<path id="ball-2" d="M350 627C357.732 627 364 620.732 364 613C364 605.268 357.732 599 350 599C342.268 599 336 605.268 336 613C336 620.732 342.268 627 350 627Z" fill="#00A898"/>
<path id="ball-3" d="M383 627C390.732 627 397 620.732 397 613C397 605.268 390.732 599 383 599C375.268 599 369 605.268 369 613C369 620.732 375.268 627 383 627Z" fill="#00A898"/>
<path id="ball-4" d="M416 627C423.732 627 430 620.732 430 613C430 605.268 423.732 599 416 599C408.268 599 402 605.268 402 613C402 620.732 408.268 627 416 627Z" fill="#00A898"/>
<path id="ball-5" d="M449 627C456.732 627 463 620.732 463 613C463 605.268 456.732 599 449 599C441.268 599 435 605.268 435 613C435 620.732 441.268 627 449 627Z" fill="#00A898"/>
<path id="ball-6" d="M482 627C489.732 627 496 620.732 496 613C496 605.268 489.732 599 482 599C474.268 599 468 605.268 468 613C468 620.732 474.268 627 482 627Z" fill="#00A898"/>
<path id="ball-7" d="M515 627C522.732 627 529 620.732 529 613C529 605.268 522.732 599 515 599C507.268 599 501 605.268 501 613C501 620.732 507.268 627 515 627Z" fill="#00A898"/>
</g>
<g id="letters">
<path id="c" d="M323 503.394C323 476.74 342.44 455 375.181 455C385.069 455.021 394.769 457.695 403.272 462.743C407.588 465.256 408.127 469.406 405.132 473.352L402.974 476.07C400.091 480.016 396.854 480.202 392.352 478.043C387.414 475.665 382.001 474.437 376.521 474.451C359.071 474.451 346.291 486.14 346.291 502.705C346.291 519.271 359.071 531.165 376.521 531.165C381.991 531.072 387.382 529.842 392.352 527.554C396.854 525.395 400.277 525.581 402.974 529.415L405.132 532.3C408.016 536.265 407.123 540.936 401.188 544.008C393.166 548.304 384.187 550.5 375.088 550.392C343.073 550.392 323 529.508 323 503.394Z" fill="#2E2E82"/>
<path id="g" d="M425.168 581.904C421.019 579.559 420.312 575.78 422.47 571.462L424.331 568.223C426.861 563.719 430.284 562.993 434.6 565.524C441.945 569.804 450.302 572.041 458.802 572.002C475.359 572.002 486.874 562.807 486.874 544.082V534.776C479.321 545.943 467.787 550.448 455.733 550.448C429.279 550.448 411.29 529.024 411.29 502.724C411.29 476.424 429.279 455.019 455.733 455.019C467.787 455.019 479.135 459.523 486.688 470.672V464.195C486.688 459.523 489.385 456.992 494.259 456.992H501.998C506.854 456.992 509.551 459.877 509.551 464.735V544.324C509.551 577.269 486.52 590.857 460.067 590.857C447.836 591.109 435.768 588.014 425.168 581.904V581.904ZM487.079 502.668C486.893 486.288 476.27 474.041 460.253 474.041C443.882 474.041 434.339 487.182 434.339 502.668C434.339 518.154 443.882 531.314 460.253 531.314C476.27 531.314 486.893 519.066 487.079 502.668Z" fill="#2E2E82"/>
<g id="fi">
<mask id="path-27-inside-1_1_2" fill="white">
<path d="M561.406 560.428V494.166H553.965C553.164 494.251 552.355 494.156 551.597 493.887C550.838 493.619 550.149 493.184 549.58 492.615C549.011 492.046 548.577 491.356 548.308 490.597C548.04 489.838 547.945 489.029 548.03 488.228V483.37C547.95 482.562 548.047 481.746 548.314 480.979C548.581 480.213 549.012 479.513 549.577 478.93C550.142 478.347 550.827 477.895 551.585 477.604C552.343 477.313 553.155 477.191 553.965 477.247H561.406V471.476C561.406 444.469 581.385 436 602.444 436C615.578 436 627.093 439.257 634.069 448.247C637.324 451.858 636.413 455.451 632.823 457.982L630.125 459.415C626.87 461.76 624.358 461.407 621.475 459.062C616.485 455.866 610.655 454.232 604.732 454.371C593.738 454.371 584.38 458.094 584.38 471.663V477.247H645.212C650.067 477.247 652.784 480.132 652.784 484.99V560.428C652.784 565.286 650.067 568.004 645.212 568.004H637.306C632.432 568.004 629.567 565.286 629.567 560.428V494.166H584.808V560.428C584.808 565.286 582.111 568.004 577.237 568.004H569.145C564.289 567.985 561.406 565.286 561.406 560.428Z"/>
</mask>
<path d="M561.406 560.428V494.166H553.965C553.164 494.251 552.355 494.156 551.597 493.887C550.838 493.619 550.149 493.184 549.58 492.615C549.011 492.046 548.577 491.356 548.308 490.597C548.04 489.838 547.945 489.029 548.03 488.228V483.37C547.95 482.562 548.047 481.746 548.314 480.979C548.581 480.213 549.012 479.513 549.577 478.93C550.142 478.347 550.827 477.895 551.585 477.604C552.343 477.313 553.155 477.191 553.965 477.247H561.406V471.476C561.406 444.469 581.385 436 602.444 436C615.578 436 627.093 439.257 634.069 448.247C637.324 451.858 636.413 455.451 632.823 457.982L630.125 459.415C626.87 461.76 624.358 461.407 621.475 459.062C616.485 455.866 610.655 454.232 604.732 454.371C593.738 454.371 584.38 458.094 584.38 471.663V477.247H645.212C650.067 477.247 652.784 480.132 652.784 484.99V560.428C652.784 565.286 650.067 568.004 645.212 568.004H637.306C632.432 568.004 629.567 565.286 629.567 560.428V494.166H584.808V560.428C584.808 565.286 582.111 568.004 577.237 568.004H569.145C564.289 567.985 561.406 565.286 561.406 560.428Z" fill="#00A898" stroke="#00A898" stroke-width="2" mask="url(#path-27-inside-1_1_2)"/>
</g>
<g id="n">
<mask id="path-28-inside-2_1_2" fill="white">
<path d="M672.447 560.428V484.227C672.447 479.369 675.144 476.483 680 476.483H687.924C688.965 476.386 690.014 476.519 690.998 476.874C691.981 477.228 692.874 477.796 693.613 478.535C694.352 479.274 694.919 480.168 695.273 481.152C695.628 482.135 695.761 483.185 695.663 484.227V492.695C699.793 481.174 710.546 474.51 724.628 474.51C746.952 474.51 758.82 490.704 758.82 515.738V560.41C758.82 565.268 755.956 567.985 751.082 567.985H743.138C738.283 567.985 735.567 565.268 735.567 560.41V516.855C735.567 501.183 728.739 493.998 719.196 493.998C709.653 493.998 695.663 500.978 695.663 523.314V560.41C695.663 565.268 692.78 567.985 687.924 567.985H680C675.144 567.985 672.447 565.286 672.447 560.428Z"/>
</mask>
<path d="M672.447 560.428V484.227C672.447 479.369 675.144 476.483 680 476.483H687.924C688.965 476.386 690.014 476.519 690.998 476.874C691.981 477.228 692.874 477.796 693.613 478.535C694.352 479.274 694.919 480.168 695.273 481.152C695.628 482.135 695.761 483.185 695.663 484.227V492.695C699.793 481.174 710.546 474.51 724.628 474.51C746.952 474.51 758.82 490.704 758.82 515.738V560.41C758.82 565.268 755.956 567.985 751.082 567.985H743.138C738.283 567.985 735.567 565.268 735.567 560.41V516.855C735.567 501.183 728.739 493.998 719.196 493.998C709.653 493.998 695.663 500.978 695.663 523.314V560.41C695.663 565.268 692.78 567.985 687.924 567.985H680C675.144 567.985 672.447 565.286 672.447 560.428Z" fill="#00A898" stroke="#00A898" stroke-width="2" mask="url(#path-28-inside-2_1_2)"/>
</g>
<g id="a">
<mask id="path-29-inside-3_1_2" fill="white">
<path d="M770.708 522.253C770.708 495.618 788.883 474.548 815.355 474.548C827.41 474.548 838.572 479.052 846.31 490.201V484.226C846.31 479.368 849.008 476.483 853.863 476.483H861.788C862.829 476.386 863.878 476.519 864.861 476.874C865.845 477.228 866.738 477.795 867.477 478.535C868.216 479.274 868.783 480.168 869.137 481.152C869.491 482.135 869.625 483.185 869.527 484.226V560.391C869.527 565.249 866.644 567.967 861.788 567.967H853.863C849.008 567.967 846.31 565.249 846.31 560.391V554.267C838.572 565.435 827.41 569.939 815.355 569.939C788.883 569.977 770.708 548.907 770.708 522.253ZM846.645 522.253C846.478 505.873 835.856 493.812 819.838 493.812C803.449 493.812 793.924 506.841 793.924 522.253C793.924 537.664 803.449 550.712 819.838 550.712C835.856 550.712 846.478 538.651 846.645 522.253Z"/>
</mask>
<path d="M770.708 522.253C770.708 495.618 788.883 474.548 815.355 474.548C827.41 474.548 838.572 479.052 846.31 490.201V484.226C846.31 479.368 849.008 476.483 853.863 476.483H861.788C862.829 476.386 863.878 476.519 864.861 476.874C865.845 477.228 866.738 477.795 867.477 478.535C868.216 479.274 868.783 480.168 869.137 481.152C869.491 482.135 869.625 483.185 869.527 484.226V560.391C869.527 565.249 866.644 567.967 861.788 567.967H853.863C849.008 567.967 846.31 565.249 846.31 560.391V554.267C838.572 565.435 827.41 569.939 815.355 569.939C788.883 569.977 770.708 548.907 770.708 522.253ZM846.645 522.253C846.478 505.873 835.856 493.812 819.838 493.812C803.449 493.812 793.924 506.841 793.924 522.253C793.924 537.664 803.449 550.712 819.838 550.712C835.856 550.712 846.478 538.651 846.645 522.253Z" fill="#00A898" stroke="#00A898" stroke-width="2" mask="url(#path-29-inside-3_1_2)"/>
</g>
<g id="n_2">
<mask id="path-30-inside-4_1_2" fill="white">
<path d="M888.577 560.428V484.227C888.577 479.369 891.274 476.483 896.129 476.483H904.054C905.095 476.386 906.144 476.519 907.128 476.874C908.111 477.228 909.004 477.796 909.743 478.535C910.482 479.274 911.049 480.168 911.403 481.152C911.758 482.135 911.891 483.185 911.793 484.227V492.695C915.942 481.174 926.676 474.51 940.777 474.51C963.1 474.51 974.969 490.704 974.969 515.738V560.41C974.969 565.268 972.085 567.985 967.23 567.985H959.305C954.45 567.985 951.752 565.268 951.752 560.41V516.855C951.752 501.183 944.906 493.998 935.363 493.998C925.82 493.998 911.793 500.978 911.793 523.314V560.41C911.793 565.268 908.91 567.985 904.054 567.985H896.129C891.274 567.985 888.577 565.286 888.577 560.428Z"/>
</mask>
<path d="M888.577 560.428V484.227C888.577 479.369 891.274 476.483 896.129 476.483H904.054C905.095 476.386 906.144 476.519 907.128 476.874C908.111 477.228 909.004 477.796 909.743 478.535C910.482 479.274 911.049 480.168 911.403 481.152C911.758 482.135 911.891 483.185 911.793 484.227V492.695C915.942 481.174 926.676 474.51 940.777 474.51C963.1 474.51 974.969 490.704 974.969 515.738V560.41C974.969 565.268 972.085 567.985 967.23 567.985H959.305C954.45 567.985 951.752 565.268 951.752 560.41V516.855C951.752 501.183 944.906 493.998 935.363 493.998C925.82 493.998 911.793 500.978 911.793 523.314V560.41C911.793 565.268 908.91 567.985 904.054 567.985H896.129C891.274 567.985 888.577 565.286 888.577 560.428Z" fill="#00A898" stroke="#00A898" stroke-width="2" mask="url(#path-30-inside-4_1_2)"/>
</g>
<g id="c_2">
<mask id="path-31-inside-5_1_2" fill="white">
<path d="M986.651 522.979C986.651 496.325 1006.09 474.585 1038.85 474.585C1048.74 474.62 1058.43 477.307 1066.92 482.365C1071.24 484.878 1071.78 489.028 1068.78 492.974L1066.61 495.692C1063.74 499.638 1060.5 499.824 1056 497.665C1051.06 495.288 1045.64 494.06 1040.15 494.073C1022.7 494.073 1009.92 505.762 1009.92 522.327C1009.92 538.893 1022.7 550.787 1040.15 550.787C1045.63 550.692 1051.03 549.463 1056 547.176C1060.5 545.017 1063.91 545.203 1066.61 549.037L1068.69 551.792C1071.56 555.756 1070.66 560.428 1064.73 563.499C1056.8 567.779 1047.93 570.006 1038.93 569.977C1006.82 569.977 986.651 549.093 986.651 522.979Z"/>
</mask>
<path d="M986.651 522.979C986.651 496.325 1006.09 474.585 1038.85 474.585C1048.74 474.62 1058.43 477.307 1066.92 482.365C1071.24 484.878 1071.78 489.028 1068.78 492.974L1066.61 495.692C1063.74 499.638 1060.5 499.824 1056 497.665C1051.06 495.288 1045.64 494.06 1040.15 494.073C1022.7 494.073 1009.92 505.762 1009.92 522.327C1009.92 538.893 1022.7 550.787 1040.15 550.787C1045.63 550.692 1051.03 549.463 1056 547.176C1060.5 545.017 1063.91 545.203 1066.61 549.037L1068.69 551.792C1071.56 555.756 1070.66 560.428 1064.73 563.499C1056.8 567.779 1047.93 570.006 1038.93 569.977C1006.82 569.977 986.651 549.093 986.651 522.979Z" fill="#00A898" stroke="#00A898" stroke-width="2" mask="url(#path-31-inside-5_1_2)"/>
</g>
<g id="e">
<mask id="path-32-inside-6_1_2" fill="white">
<path d="M1075.74 522.625C1075.74 496.567 1095.72 474.548 1125.41 474.548C1149.87 474.548 1171.12 489.308 1172.92 518.474C1173.28 523.165 1170.23 525.678 1165.37 525.678H1098.23C1097.88 539.544 1110.12 550.898 1129 550.898C1136.99 550.9 1144.81 548.586 1151.51 544.235C1155.45 541.89 1159.06 542.243 1162.11 545.668L1163.73 547.641C1166.99 551.252 1166.8 555.756 1162.3 559.163C1151.86 567.278 1139.44 569.977 1127.92 569.977C1095.53 569.977 1075.74 548.721 1075.74 522.625ZM1150.54 511.104C1146.95 496.697 1135.44 493.086 1125.71 493.086C1115.63 493.086 1103.57 497.237 1099.25 511.104H1150.54Z"/>
</mask>
<path d="M1075.74 522.625C1075.74 496.567 1095.72 474.548 1125.41 474.548C1149.87 474.548 1171.12 489.308 1172.92 518.474C1173.28 523.165 1170.23 525.678 1165.37 525.678H1098.23C1097.88 539.544 1110.12 550.898 1129 550.898C1136.99 550.9 1144.81 548.586 1151.51 544.235C1155.45 541.89 1159.06 542.243 1162.11 545.668L1163.73 547.641C1166.99 551.252 1166.8 555.756 1162.3 559.163C1151.86 567.278 1139.44 569.977 1127.92 569.977C1095.53 569.977 1075.74 548.721 1075.74 522.625ZM1150.54 511.104C1146.95 496.697 1135.44 493.086 1125.71 493.086C1115.63 493.086 1103.57 497.237 1099.25 511.104H1150.54Z" fill="#00A898" stroke="#00A898" stroke-width="2" mask="url(#path-32-inside-6_1_2)"/>
</g>
</g>
</g>
<defs>
<clipPath id="clip0_1_2">
<rect width="1440" height="1024" fill="white"/>
</clipPath>
</defs>
</svg>
