<svg width="1440" height="1024" viewBox="0 0 1440 1024" fill="none" xmlns="http://www.w3.org/2000/svg">
<g id="logo animation" clip-path="url(#clip0_1_2)">
<rect width="1440" height="1024" fill="white"/>
<rect id="bg" width="1440" height="1024" fill="#2E2E82"/>
<g id="bar-bottom">
<path id="bar-draw-underline" d="M515 613L1418 614.016" stroke="#FF0000" stroke-width="28" stroke-linecap="round"/>
<path id="bar-underline" fill-rule="evenodd" clip-rule="evenodd" d="M501.016 613C501.024 605.268 507.3 599.007 515.031 599.016L1418.03 600.031C1425.76 600.04 1432.02 606.315 1432.02 614.047C1432.01 621.779 1425.73 628.04 1418 628.031L515 627.016C507.268 627.007 501.007 620.732 501.016 613Z" fill="#00A898"/>
</g>
<g id="bars">
<path id="bar-draw-7" d="M515 17V1028" stroke="#FF0000" stroke-width="28" stroke-linecap="round"/>
<path id="bar-draw-6" d="M482 17V1028" stroke="#FF0000" stroke-width="28" stroke-linecap="round"/>
<path id="bar-draw-5" d="M449 17V1028" stroke="#FF0000" stroke-width="28" stroke-linecap="round"/>
<path id="bar-draw-4" d="M416 17V1028" stroke="#FF0000" stroke-width="28" stroke-linecap="round"/>
<path id="bar-draw-3" d="M383 17V1028" stroke="#FF0000" stroke-width="28" stroke-linecap="round"/>
<path id="bar-draw-2" d="M350 17V1028" stroke="#FF0000" stroke-width="28" stroke-linecap="round"/>
<path id="bar-draw-1" d="M317 17V1028" stroke="#FF0000" stroke-width="28" stroke-linecap="round"/>
<path id="bar-1" d="M316.952 626.994C313.252 626.994 309.703 625.523 307.087 622.905C304.47 620.287 303 616.736 303 613.034V411.082C303 407.38 304.47 403.829 307.087 401.211C309.703 398.593 313.252 397.123 316.952 397.123C320.653 397.123 324.201 398.593 326.818 401.211C329.435 403.829 330.904 407.38 330.904 411.082V613.034C330.904 616.736 329.435 620.287 326.818 622.905C324.201 625.523 320.653 626.994 316.952 626.994V626.994Z" fill="#00A898"/>
<path id="bar-2" d="M349.952 626.871C346.252 626.871 342.703 625.4 340.087 622.782C337.47 620.164 336 616.614 336 612.911V410.96C336 407.257 337.47 403.707 340.087 401.089C342.703 398.471 346.252 397 349.952 397C353.653 397 357.201 398.471 359.818 401.089C362.435 403.707 363.904 407.257 363.904 410.96V612.911C363.904 614.745 363.544 616.56 362.842 618.254C362.141 619.947 361.114 621.486 359.818 622.782C358.522 624.079 356.984 625.107 355.292 625.809C353.599 626.51 351.784 626.871 349.952 626.871V626.871Z" fill="#00A898"/>
<path id="bar-3" d="M382.952 626.871C379.252 626.871 375.703 625.4 373.087 622.782C370.47 620.165 369 616.614 369 612.911V410.96C369 407.257 370.47 403.707 373.087 401.089C375.703 398.471 379.252 397 382.952 397C386.653 397 390.201 398.471 392.818 401.089C395.434 403.707 396.904 407.257 396.904 410.96V612.911C396.904 616.614 395.434 620.165 392.818 622.782C390.201 625.4 386.653 626.871 382.952 626.871Z" fill="#00A898"/>
<path id="bar-4" d="M415.952 626.871C414.119 626.874 412.304 626.514 410.61 625.814C408.916 625.113 407.377 624.085 406.081 622.788C404.785 621.491 403.757 619.951 403.057 618.256C402.357 616.562 401.998 614.745 402 612.911V410.96C402 407.257 403.47 403.707 406.087 401.089C408.703 398.471 412.252 397 415.952 397C419.653 397 423.201 398.471 425.818 401.089C428.435 403.707 429.904 407.257 429.904 410.96V612.911C429.904 616.614 428.435 620.164 425.818 622.782C423.201 625.4 419.653 626.871 415.952 626.871Z" fill="#00A898"/>
<path id="bar-5" d="M448.952 626.871C445.252 626.871 441.703 625.4 439.087 622.782C436.47 620.164 435 616.614 435 612.911V410.96C435 407.257 436.47 403.707 439.087 401.089C441.703 398.471 445.252 397 448.952 397C452.653 397 456.201 398.471 458.818 401.089C461.435 403.707 462.904 407.257 462.904 410.96V612.911C462.904 616.614 461.435 620.164 458.818 622.782C456.201 625.4 452.653 626.871 448.952 626.871Z" fill="#00A898"/>
<path id="bar-6" d="M481.952 626.871C480.119 626.874 478.304 626.514 476.61 625.814C474.916 625.113 473.377 624.085 472.081 622.788C470.785 621.491 469.757 619.951 469.057 618.257C468.357 616.562 467.998 614.745 468 612.911V410.96C468 407.257 469.47 403.707 472.087 401.089C474.703 398.471 478.252 397 481.952 397C485.653 397 489.201 398.471 491.818 401.089C494.435 403.707 495.904 407.257 495.904 410.96V612.911C495.904 616.614 494.435 620.165 491.818 622.782C489.201 625.4 485.653 626.871 481.952 626.871Z" fill="#00A898"/>
<path id="bar-7" d="M515.242 626.994C511.541 626.994 507.992 625.523 505.376 622.905C502.759 620.287 501.289 616.736 501.289 613.034V411.082C501.289 407.38 502.759 403.829 505.376 401.211C507.992 398.593 511.541 397.123 515.242 397.123C518.942 397.123 522.491 398.593 525.107 401.211C527.724 403.829 529.194 407.38 529.194 411.082V613.034C529.194 616.736 527.724 620.287 525.107 622.905C522.491 625.523 518.942 626.994 515.242 626.994Z" fill="#00A898"/>
</g>
<g id="balls">
<path id="ball-1" d="M317 627C324.732 627 331 620.732 331 613C331 605.268 324.732 599 317 599C309.268 599 303 605.268 303 613C303 620.732 309.268 627 317 627Z" fill="#00A898"/>
<path id="ball-2" d="M350 627C357.732 627 364 620.732 364 613C364 605.268 357.732 599 350 599C342.268 599 336 605.268 336 613C336 620.732 342.268 627 350 627Z" fill="#00A898"/>
<path id="ball-3" d="M383 627C390.732 627 397 620.732 397 613C397 605.268 390.732 599 383 599C375.268 599 369 605.268 369 613C369 620.732 375.268 627 383 627Z" fill="#00A898"/>
<path id="ball-4" d="M416 627C423.732 627 430 620.732 430 613C430 605.268 423.732 599 416 599C408.268 599 402 605.268 402 613C402 620.732 408.268 627 416 627Z" fill="#00A898"/>
<path id="ball-5" d="M449 627C456.732 627 463 620.732 463 613C463 605.268 456.732 599 449 599C441.268 599 435 605.268 435 613C435 620.732 441.268 627 449 627Z" fill="#00A898"/>
<path id="ball-6" d="M482 627C489.732 627 496 620.732 496 613C496 605.268 489.732 599 482 599C474.268 599 468 605.268 468 613C468 620.732 474.268 627 482 627Z" fill="#00A898"/>
<path id="ball-7" d="M515 627C522.732 627 529 620.732 529 613C529 605.268 522.732 599 515 599C507.268 599 501 605.268 501 613C501 620.732 507.268 627 515 627Z" fill="#00A898"/>
</g>
<g id="letters">
<path id="c" d="M323 503.394C323 476.74 342.44 455 375.181 455C385.069 455.021 394.769 457.695 403.272 462.743C407.588 465.256 408.127 469.406 405.132 473.352L402.974 476.07C400.091 480.016 396.854 480.202 392.352 478.043C387.414 475.665 382.001 474.437 376.521 474.451C359.071 474.451 346.291 486.14 346.291 502.705C346.291 519.271 359.071 531.165 376.521 531.165C381.991 531.072 387.382 529.842 392.352 527.554C396.854 525.395 400.277 525.581 402.974 529.415L405.132 532.3C408.016 536.265 407.123 540.936 401.188 544.008C393.166 548.304 384.187 550.5 375.088 550.392C343.073 550.392 323 529.508 323 503.394Z" fill="#2E2E82"/>
<path id="g" d="M425.168 581.904C421.019 579.559 420.312 575.78 422.47 571.462L424.331 568.223C426.861 563.719 430.284 562.993 434.6 565.524C441.945 569.804 450.302 572.041 458.802 572.002C475.359 572.002 486.874 562.807 486.874 544.082V534.776C479.321 545.943 467.787 550.448 455.733 550.448C429.279 550.448 411.29 529.024 411.29 502.724C411.29 476.424 429.279 455.019 455.733 455.019C467.787 455.019 479.135 459.523 486.688 470.672V464.195C486.688 459.523 489.385 456.992 494.259 456.992H501.998C506.854 456.992 509.551 459.877 509.551 464.735V544.324C509.551 577.269 486.52 590.857 460.067 590.857C447.836 591.109 435.768 588.014 425.168 581.904V581.904ZM487.079 502.668C486.893 486.288 476.27 474.041 460.253 474.041C443.882 474.041 434.339 487.182 434.339 502.668C434.339 518.154 443.882 531.314 460.253 531.314C476.27 531.314 486.893 519.066 487.079 502.668Z" fill="#2E2E82"/>
<path id="fi" d="M561.906 494.166V493.666H561.406H553.965H553.938L553.912 493.669C553.186 493.746 552.452 493.659 551.763 493.416C551.075 493.173 550.45 492.778 549.934 492.262C549.418 491.745 549.023 491.119 548.78 490.431C548.537 489.742 548.45 489.007 548.527 488.281L548.53 488.255V488.228V483.37V483.345L548.528 483.321C548.455 482.585 548.543 481.842 548.786 481.144C549.029 480.446 549.422 479.809 549.936 479.278C550.45 478.748 551.074 478.335 551.764 478.071C552.454 477.806 553.193 477.695 553.93 477.745L553.947 477.747H553.965H561.406H561.906V477.247V471.476C561.906 458.113 566.839 449.404 574.32 444.016C581.829 438.608 591.969 436.5 602.444 436.5C615.514 436.5 626.837 439.743 633.674 448.554L633.685 448.569L633.698 448.582C635.254 450.308 635.759 451.962 635.519 453.44C635.279 454.922 634.271 456.342 632.56 457.555L629.891 458.974L629.86 458.99L629.833 459.01C628.263 460.141 626.934 460.577 625.692 460.498C624.443 460.419 623.192 459.814 621.79 458.674L621.768 458.656L621.744 458.641C616.672 455.392 610.747 453.731 604.726 453.871C599.191 453.872 593.981 454.806 590.145 457.52C586.274 460.258 583.88 464.749 583.88 471.663V477.247V477.747H584.38H645.212C647.54 477.747 649.29 478.436 650.459 479.644C651.631 480.855 652.284 482.651 652.284 484.99V560.428C652.284 562.766 651.632 564.517 650.465 565.684C649.298 566.852 647.548 567.504 645.212 567.504H637.306C634.959 567.504 633.164 566.851 631.957 565.679C630.752 564.509 630.067 562.759 630.067 560.428V494.166V493.666H629.567H584.808H584.308V494.166V560.428C584.308 562.767 583.66 564.518 582.496 565.685C581.332 566.851 579.583 567.504 577.237 567.504H569.146C566.808 567.495 565.012 566.842 563.802 565.671C562.595 564.504 561.906 562.758 561.906 560.428V494.166Z" fill="#00A898" stroke="#00A898"/>
<path id="n" d="M687.924 476.983H687.948L687.971 476.981C688.939 476.891 689.914 477.014 690.828 477.344C691.742 477.674 692.572 478.201 693.259 478.888C693.946 479.576 694.473 480.406 694.803 481.321C695.132 482.236 695.256 483.212 695.166 484.18L695.163 484.203V484.227V492.695L696.134 492.864C700.178 481.581 710.711 475.01 724.628 475.01C735.657 475.01 744.054 479.004 749.706 486.049C755.369 493.11 758.32 503.292 758.32 515.738V560.41C758.32 562.74 757.636 564.491 756.431 565.66C755.223 566.832 753.428 567.485 751.082 567.485H743.138C740.802 567.485 739.052 566.833 737.885 565.666C736.719 564.499 736.067 562.747 736.067 560.41V516.855C736.067 508.955 734.347 503.118 731.356 499.244C728.351 495.353 724.105 493.498 719.196 493.498C714.312 493.498 708.298 495.283 703.503 499.921C698.699 504.568 695.163 512.036 695.163 523.314V560.41C695.163 562.739 694.474 564.49 693.267 565.66C692.057 566.833 690.261 567.485 687.924 567.485H680C677.662 567.485 675.917 566.837 674.756 565.675C673.595 564.513 672.947 562.767 672.947 560.428V484.227C672.947 481.887 673.595 480.091 674.762 478.88C675.927 477.673 677.672 476.983 680 476.983H687.924Z" fill="#00A898" stroke="#00A898"/>
<path id="a" d="M845.9 490.486L846.81 491.798V490.201V484.226C846.81 481.887 847.459 480.091 848.626 478.88C849.791 477.673 851.535 476.983 853.863 476.983H861.788H861.812L861.835 476.981C862.802 476.89 863.778 477.014 864.692 477.344C865.606 477.674 866.436 478.201 867.123 478.888C867.81 479.576 868.337 480.406 868.667 481.321C868.996 482.236 869.12 483.212 869.029 484.18L869.027 484.203V484.226V560.391C869.027 562.721 868.338 564.471 867.13 565.641C865.92 566.814 864.125 567.467 861.788 567.467H853.863C851.527 567.467 849.782 566.814 848.62 565.648C847.458 564.481 846.81 562.73 846.81 560.391V554.267V552.668L845.899 553.983C838.269 564.994 827.274 569.439 815.355 569.439H815.354C789.201 569.476 771.208 548.674 771.208 522.253C771.208 495.85 789.201 475.048 815.355 475.048C827.274 475.048 838.269 479.493 845.9 490.486ZM847.145 522.258L847.145 522.248C847.061 513.952 844.327 506.717 839.553 501.551C834.775 496.381 827.98 493.312 819.838 493.312C811.5 493.312 804.882 496.632 800.355 501.928C795.836 507.216 793.424 514.448 793.424 522.253C793.424 530.058 795.836 537.294 800.355 542.587C804.881 547.888 811.5 551.212 819.838 551.212C827.98 551.212 834.775 548.144 839.553 542.971C844.327 537.803 847.061 530.563 847.145 522.258Z" fill="#00A898" stroke="#00A898"/>
<path id="n_2" d="M904.054 476.983H904.078L904.101 476.981C905.068 476.891 906.044 477.014 906.958 477.344C907.872 477.674 908.702 478.201 909.389 478.888C910.076 479.576 910.603 480.406 910.933 481.321C911.262 482.236 911.386 483.212 911.295 484.18L911.293 484.203V484.227V492.695L912.264 492.865C916.326 481.581 926.841 475.01 940.777 475.01C951.806 475.01 960.203 479.004 965.854 486.049C971.518 493.11 974.469 503.292 974.469 515.738V560.41C974.469 562.739 973.78 564.49 972.572 565.66C971.362 566.833 969.567 567.485 967.23 567.485H959.305C956.969 567.485 955.224 566.833 954.062 565.666C952.9 564.5 952.252 562.748 952.252 560.41V516.855C952.252 508.955 950.528 503.117 947.532 499.244C944.523 495.353 940.272 493.498 935.363 493.498C930.479 493.498 924.456 495.283 919.652 499.921C914.838 504.568 911.293 512.036 911.293 523.314V560.41C911.293 562.739 910.604 564.49 909.397 565.66C908.187 566.833 906.391 567.485 904.054 567.485H896.129C893.792 567.485 892.047 566.837 890.886 565.675C889.724 564.513 889.077 562.767 889.077 560.428V484.227C889.077 481.887 889.725 480.091 890.892 478.88C892.057 477.673 893.801 476.983 896.129 476.983H904.054Z" fill="#00A898" stroke="#00A898"/>
<path id="c_2" d="M1066.67 482.795L1066.67 482.797C1068.73 483.997 1069.83 485.548 1070.1 487.212C1070.37 488.884 1069.83 490.771 1068.39 492.667L1066.22 495.379L1066.21 495.389L1066.2 495.398C1064.82 497.299 1063.4 498.23 1061.84 498.474C1060.26 498.721 1058.43 498.277 1056.22 497.214C1051.21 494.804 1045.71 493.56 1040.15 493.573C1022.46 493.573 1009.42 505.452 1009.42 522.327C1009.42 539.199 1022.46 551.287 1040.15 551.287L1040.16 551.286C1045.71 551.191 1051.17 549.946 1056.21 547.63L1056.21 547.63L1056.22 547.626C1058.43 546.565 1060.3 546.118 1061.91 546.354C1063.49 546.585 1064.91 547.491 1066.2 549.325L1066.2 549.332L1066.21 549.339L1068.29 552.089C1069.65 553.973 1070.08 555.972 1069.53 557.838C1068.97 559.715 1067.39 561.56 1064.5 563.055L1064.5 563.055L1064.49 563.059C1056.64 567.3 1047.85 569.506 1038.93 569.477H1038.93C1007.06 569.477 987.151 548.787 987.151 522.979C987.151 509.775 991.964 497.809 1000.82 489.144C1009.67 480.48 1022.58 475.085 1038.85 475.085C1048.64 475.12 1058.25 477.782 1066.67 482.795Z" fill="#00A898" stroke="#00A898"/>
<path id="e" d="M1129 551.398C1137.08 551.4 1144.99 549.06 1151.77 544.66C1153.68 543.529 1155.45 543.078 1157.09 543.284C1158.71 543.488 1160.27 544.354 1161.73 545.993L1163.35 547.958L1163.35 547.967L1163.36 547.976C1164.92 549.701 1165.61 551.595 1165.43 553.428C1165.24 555.261 1164.17 557.123 1162 558.764L1161.99 558.768C1151.67 566.795 1139.36 569.477 1127.92 569.477C1111.84 569.477 1098.92 564.201 1090.03 555.725C1081.14 547.248 1076.24 535.543 1076.24 522.625C1076.24 496.84 1096 475.048 1125.41 475.048C1137.54 475.048 1148.85 478.708 1157.34 485.954C1165.82 493.194 1171.53 504.045 1172.42 518.505L1172.42 518.512C1172.59 520.736 1171.95 522.375 1170.76 523.466C1169.56 524.569 1167.72 525.178 1165.37 525.178H1098.23H1097.74L1097.73 525.665C1097.37 539.898 1109.93 551.398 1129 551.398ZM1129 551.398L1129 550.898M1129 551.398L1129 550.898M1129 550.898C1110.12 550.898 1097.88 539.544 1098.23 525.678L1162.11 545.668C1159.06 542.243 1155.45 541.89 1151.51 544.235C1144.81 548.586 1136.99 550.9 1129 550.898ZM1150.54 511.604H1151.18L1151.03 510.983C1149.2 503.654 1145.35 499.037 1140.68 496.263C1136.04 493.498 1130.63 492.586 1125.71 492.586C1115.51 492.586 1103.18 496.798 1098.78 510.955L1098.58 511.604H1099.25H1150.54Z" fill="#00A898" stroke="#00A898"/>
</g>
</g>
<defs>
<clipPath id="clip0_1_2">
<rect width="1440" height="1024" fill="white"/>
</clipPath>
</defs>
</svg>
