<?xml version="1.0" encoding="utf-8"?>
<!-- Generator: Adobe Illustrator 25.2.0, SVG Export Plug-In . SVG Version: 6.00 Build 0)  -->
<svg version="1.1" id="Layer_1" xmlns="http://www.w3.org/2000/svg" xmlns:xlink="http://www.w3.org/1999/xlink" x="0px" y="0px"
	 viewBox="0 0 72 72" style="enable-background:new 0 0 72 72;" xml:space="preserve">
<style type="text/css">
	.st0{fill:#FFFFFF;}
	.st1{fill:#FFFFFF;stroke:#000000;stroke-width:2.5;stroke-miterlimit:10;}
</style>
<g>
	<circle class="st0" cx="35" cy="31" r="9.5"/>
	<path d="M35,24c3.86,0,7,3.14,7,7s-3.14,7-7,7s-7-3.14-7-7S31.14,24,35,24 M35,19c-6.63,0-12,5.37-12,12s5.37,12,12,12
		s12-5.37,12-12S41.63,19,35,19L35,19z"/>
</g>
<g>
	<circle class="st0" cx="16" cy="13" r="6.33"/>
	<path d="M16,8.33c2.57,0,4.67,2.09,4.67,4.67s-2.09,4.67-4.67,4.67s-4.67-2.09-4.67-4.67S13.43,8.33,16,8.33 M16,5
		c-4.42,0-8,3.58-8,8s3.58,8,8,8s8-3.58,8-8S20.42,5,16,5L16,5z"/>
</g>
<g>
	<circle class="st0" cx="55" cy="18" r="4.75"/>
	<path d="M55,14.5c1.93,0,3.5,1.57,3.5,3.5s-1.57,3.5-3.5,3.5s-3.5-1.57-3.5-3.5S53.07,14.5,55,14.5 M55,12c-3.31,0-6,2.69-6,6
		s2.69,6,6,6s6-2.69,6-6S58.31,12,55,12L55,12z"/>
</g>
<g>
	<circle class="st0" cx="11" cy="34" r="4.75"/>
	<path d="M11,30.5c1.93,0,3.5,1.57,3.5,3.5s-1.57,3.5-3.5,3.5S7.5,35.93,7.5,34S9.07,30.5,11,30.5 M11,28c-3.31,0-6,2.69-6,6
		s2.69,6,6,6s6-2.69,6-6S14.31,28,11,28L11,28z"/>
</g>
<g>
	<path class="st0" d="M57.5,44.23c-3.71,0-6.73-3.02-6.73-6.73s3.02-6.73,6.73-6.73s6.73,3.02,6.73,6.73S61.21,44.23,57.5,44.23z"/>
	<path d="M57.5,32.54c2.73,0,4.96,2.22,4.96,4.96s-2.22,4.96-4.96,4.96s-4.96-2.22-4.96-4.96S54.77,32.54,57.5,32.54 M57.5,29
		c-4.69,0-8.5,3.81-8.5,8.5s3.81,8.5,8.5,8.5s8.5-3.81,8.5-8.5S62.19,29,57.5,29L57.5,29z"/>
</g>
<g>
	<path class="st0" d="M42,64.71c-4.8,0-8.71-3.91-8.71-8.71s3.91-8.71,8.71-8.71s8.71,3.91,8.71,8.71S46.8,64.71,42,64.71z"/>
	<path d="M42,49.58c3.54,0,6.42,2.88,6.42,6.42c0,3.54-2.88,6.42-6.42,6.42s-6.42-2.88-6.42-6.42C35.58,52.46,38.46,49.58,42,49.58
		 M42,45c-6.08,0-11,4.92-11,11s4.92,11,11,11s11-4.92,11-11S48.08,45,42,45L42,45z"/>
</g>
<line class="st1" x1="51" y1="21" x2="42" y2="26.14"/>
<line class="st1" x1="20" y1="17" x2="29" y2="26"/>
<line class="st1" x1="38.03" y1="40" x2="40" y2="48"/>
<line class="st1" x1="51" y1="35.81" x2="43.93" y2="34"/>
<line class="st1" x1="16" y1="33.21" x2="26" y2="33"/>
</svg>
